<?xml version="1.0" encoding="UTF-8"?>
<svg width="175px" height="105px" viewBox="0 0 175 105" version="1.1" xmlns="http://www.w3.org/2000/svg" xmlns:xlink="http://www.w3.org/1999/xlink">
    <title>647324ED-86E3-4B6D-A3BA-8A245992A1DB</title>
    <g id="00---Startseite" stroke="none" stroke-width="1" fill="none" fill-rule="evenodd">
        <g id="00---00---00---startseite-(desktop)" transform="translate(-370.000000, -61.000000)" fill="#023670">
            <g id="oben" transform="translate(-1.000000, 0.000000)">
                <g id="menu" transform="translate(1.000000, 30.000000)">
                    <g id="FH_logo_white" transform="translate(370.000000, 31.000000)">
                        <g id="Group-53" transform="translate(2.134962, 13.877252)">
                            <polygon id="Fill-1" points="101.350348 8.00610687e-05 87.3028325 2.47716953 87.3028325 31.6962572 64.7128014 35.6792953 64.7128014 6.46020769 50.6644857 8.93809777 50.6644857 79.7248923 64.7128014 77.2470022 64.7128014 48.0279146 87.3028325 44.0440758 87.3028325 73.263964 101.350348 70.7876752"></polygon>
                            <polygon id="Fill-2" points="14.0471148 15.3939021 -0.000400305344 17.8709916 -0.000400305344 88.6569855 0.00440335878 88.6569855 14.0471148 86.1814972 14.0471148 56.9608084 36.6507563 52.976169 36.6507563 40.6275497 14.0471148 44.6137904 14.0471148 27.7417207 36.6507563 23.7562807 36.6507563 11.4084621"></polygon>
                            <polygon id="Fill-3" points="116.723834 42.2336548 114.062604 42.7028127 114.062604 45.4937416 112.676747 45.7387284 112.676747 38.9087187 117.056888 38.1361293 117.056888 39.276199 114.062604 39.8038014 114.062604 41.5675467 116.723834 41.0983889"></polygon>
                            <path d="M119.53654,43.5862065 C119.734291,43.5517803 119.916029,43.4749216 120.081756,43.3564313 C120.248283,43.2379409 120.371577,43.0970334 120.451638,42.9329082 L120.451638,42.0602426 L119.952857,42.1475091 C119.284347,42.2659995 118.928076,42.5630261 118.885643,43.0393894 L118.88084,43.1202511 C118.88084,43.28918 118.939284,43.4180783 119.056173,43.5061455 C119.173062,43.5958139 119.333185,43.622234 119.53654,43.5862065 L119.53654,43.5862065 Z M120.640582,44.3347775 C120.578935,44.2234926 120.534901,44.0793827 120.50688,43.9032484 C120.183433,44.3259708 119.763112,44.5829668 119.245918,44.6742365 C118.755944,44.7607024 118.350035,44.6886475 118.028189,44.457271 C117.706344,44.2266951 117.545421,43.8920398 117.545421,43.4541058 C117.545421,42.9160954 117.741571,42.468554 118.13467,42.1114816 C118.52697,41.7552099 119.094603,41.5094224 119.836769,41.3749198 L120.451638,41.267638 L120.451638,40.9762157 C120.451638,40.7416368 120.392392,40.5647018 120.273101,40.4446102 C120.154611,40.3253192 119.968069,40.2876905 119.712674,40.3325247 C119.486902,40.3717546 119.310767,40.4582206 119.18347,40.5903213 C119.055373,40.7224221 118.991324,40.8833449 118.991324,41.0738902 L117.656706,41.3092697 C117.656706,41.0154456 117.745574,40.7280264 117.92411,40.4462114 C118.102646,40.1643965 118.355639,39.9234126 118.682288,39.7240606 C119.008137,39.5239079 119.374816,39.3878041 119.781527,39.3165497 C120.397997,39.2076667 120.886369,39.278921 121.248245,39.5295122 C121.610121,39.7793027 121.791059,40.190016 121.791059,40.7592502 L121.791059,42.9593284 C121.794262,43.4396948 121.860712,43.7927641 121.989611,44.0169351 L121.989611,44.0969962 L120.640582,44.3347775 Z" id="Fill-4"></path>
                            <path d="M124.867166,42.5901668 C125.113754,42.5461332 125.313907,42.4420538 125.467624,42.277128 C125.621341,42.1130028 125.701402,41.9160526 125.707807,41.6862773 L126.959962,41.4661094 C126.95676,41.810372 126.863889,42.1410242 126.682951,42.4596672 C126.501212,42.7775097 126.251422,43.0433124 125.936782,43.2578761 C125.62054,43.4716391 125.272275,43.6109454 124.890383,43.6789973 C124.175438,43.8054938 123.612609,43.6741936 123.199494,43.2850969 C122.786379,42.8968007 122.580622,42.2963427 122.580622,41.4829222 L122.580622,41.3940544 C122.580622,40.6118578 122.784777,39.951354 123.19469,39.4133436 C123.604603,38.8753332 124.166631,38.5430798 124.881577,38.4173839 C125.506053,38.3068996 126.007235,38.3997704 126.385124,38.6943952 C126.761411,38.9882193 126.953557,39.4357607 126.959962,40.0354181 L125.707807,40.255586 C125.701402,39.9929857 125.621341,39.792833 125.467624,39.6543274 C125.313907,39.5166224 125.110551,39.4701869 124.858359,39.5142205 C124.546921,39.5694627 124.312343,39.7255817 124.153021,39.984179 C123.995301,40.2419756 123.91604,40.6294712 123.91604,41.1458651 L123.91604,41.2867726 C123.91604,41.8095714 123.9945,42.1730486 124.150619,42.3732013 C124.308339,42.5741546 124.546921,42.6462095 124.867166,42.5901668" id="Fill-6"></path>
                            <path d="M128.996155,38.3392443 C129.350025,37.8452675 129.795965,37.5506427 130.331574,37.4553701 C131.415601,37.2648247 131.96562,37.8076388 131.980832,39.0838122 L131.980832,42.3342916 L130.646214,42.5704718 L130.646214,39.3568205 C130.646214,39.0661988 130.583766,38.8612424 130.460472,38.7443533 C130.337979,38.6266635 130.133022,38.5930379 129.846404,38.6442769 C129.454905,38.7131295 129.17229,38.9164846 128.996155,39.2543423 L128.996155,42.8610934 L127.661537,43.096473 L127.661537,35.8909768 L128.996155,35.6555973 L128.996155,38.3392443 Z" id="Fill-8"></path>
                            <polygon id="Fill-10" points="135.556599 39.3259169 132.955415 39.7846668 132.955415 38.6918332 135.556599 38.2330833"></polygon>
                            <path d="M113.891994,52.5313497 C114.245864,52.0373729 114.691804,51.7435488 115.227413,51.6482761 C116.31144,51.4569301 116.860659,51.9997442 116.876671,53.2767182 L116.876671,56.5271976 L115.541252,56.7625772 L115.541252,53.5489259 C115.541252,53.2583042 115.479605,53.0541485 115.356311,52.9372593 C115.233017,52.8195695 115.028061,52.7859439 114.742243,52.8363824 C114.350744,52.9060355 114.067328,53.10859 113.891994,53.4464477 L113.891994,57.0531988 L112.557376,57.2885784 L112.557376,50.0830822 L113.891994,49.8477027 L113.891994,52.5313497 Z" id="Fill-12"></path>
                            <path d="M118.982197,53.6673362 C118.982197,54.1501044 119.071865,54.5031737 119.250401,54.7265441 C119.428938,54.9507151 119.684332,55.033178 120.017386,54.9747334 C120.340833,54.9178901 120.593026,54.74736 120.774764,54.4623426 C120.956503,54.1789264 121.047772,53.7586058 121.047772,53.2045832 C121.047772,52.7314223 120.956503,52.3815554 120.774764,52.1533814 C120.593026,51.9252073 120.337631,51.8403426 120.007779,51.8987872 C119.681931,51.9556305 119.428938,52.1293631 119.250401,52.4199847 C119.071865,52.7098058 118.982197,53.1253227 118.982197,53.6673362 L118.982197,53.6673362 Z M117.647579,53.8066424 C117.647579,53.3030583 117.742851,52.8379035 117.933397,52.4103774 C118.124743,51.9820507 118.399352,51.6281808 118.758026,51.3495682 C119.116699,51.0709557 119.533818,50.8892171 120.007779,50.8059536 C120.682694,50.6866626 121.233514,50.7987481 121.659439,51.1430107 C122.086164,51.4864727 122.323946,52.0140751 122.373584,52.7242168 L122.38239,53.0700806 C122.38239,53.8490748 122.168627,54.5111798 121.740301,55.0571963 C121.311974,55.6040134 120.737936,55.9402699 120.017386,56.067567 C119.296837,56.1940635 118.721198,56.0611621 118.29207,55.6680623 C117.862142,55.2749624 117.647579,54.6745044 117.647579,53.8674889 L117.647579,53.8066424 Z" id="Fill-14"></path>
                            <path d="M125.254982,54.0504284 C125.50157,54.0071954 125.701722,53.903116 125.85544,53.7381902 C126.009157,53.5732644 126.090019,53.3763142 126.096423,53.1473395 L127.347778,52.926371 C127.344575,53.2706336 127.252505,53.6020864 127.070767,53.9207295 C126.889028,54.2385719 126.640038,54.5043747 126.324597,54.7181377 C126.008356,54.9319008 125.660091,55.0720076 125.278199,55.1392589 C124.564055,55.2657554 124.000425,55.1344553 123.587309,54.7453585 C123.174995,54.3570623 122.968437,53.7566043 122.968437,52.9431838 L122.968437,52.854316 C122.968437,52.0721194 123.173394,51.4124162 123.583306,50.8736052 C123.992419,50.3355948 124.554447,50.0033414 125.269393,49.8776455 C125.894669,49.7671612 126.395852,49.8600321 126.772939,50.1546568 C127.150027,50.4492815 127.341373,50.8968229 127.347778,51.4956797 L126.096423,51.7166482 C126.090019,51.4532473 126.009157,51.2530947 125.85544,51.1153896 C125.701722,50.9776846 125.498367,50.9304485 125.245374,50.9744821 C124.934737,51.0305249 124.700158,51.1858434 124.541637,51.4444406 C124.383117,51.7022373 124.303856,52.0905334 124.303856,52.6069273 L124.303856,52.7478348 C124.303856,53.2706336 124.382316,53.6333102 124.539236,53.8334629 C124.696155,54.0344162 124.934737,54.1072718 125.254982,54.0504284" id="Fill-16"></path>
                            <path d="M129.384692,49.799586 C129.738562,49.3056092 130.183701,49.011785 130.71931,48.9165124 C131.803336,48.7251664 132.353356,49.2679805 132.369368,50.5449545 L132.369368,53.7954339 L131.03395,54.0308134 L131.03395,50.8171621 C131.03395,50.5265405 130.971502,50.3223847 130.849009,50.2054956 C130.725715,50.0870052 130.520758,50.0541802 130.23494,50.1046186 C129.843442,50.1742718 129.560025,50.3768263 129.384692,50.714684 L129.384692,54.3214351 L128.049273,54.5568147 L128.049273,47.3513185 L129.384692,47.1159389 L129.384692,49.799586 Z" id="Fill-18"></path>
                            <path d="M136.05538,51.7424279 C136.05538,51.5767015 135.974518,51.4606129 135.812795,51.3933616 C135.651071,51.326911 135.391674,51.287681 135.034601,51.2756719 C133.845694,51.2316383 133.250841,50.8241275 133.250841,50.0515381 C133.250841,49.6007943 133.435782,49.1916823 133.803262,48.8250026 C134.170742,48.4583229 134.65271,48.2229433 135.246763,48.1188639 C135.881647,48.0067784 136.389235,48.0684255 136.769525,48.3054062 C137.149815,48.5415864 137.339559,48.9018612 137.339559,49.3870313 L136.004941,49.6224108 C136.004941,49.4278624 135.942494,49.2789488 135.82,49.1740688 C135.696706,49.0683882 135.50456,49.0395662 135.241959,49.0860016 C135.017788,49.1252316 134.843255,49.2076945 134.719961,49.3325897 C134.597468,49.457485 134.535821,49.5991931 134.535821,49.7585146 C134.535821,49.9090294 134.605474,50.0179125 134.745581,50.0859644 C134.885688,50.1532157 135.122668,50.191645 135.454922,50.1996511 C135.787175,50.2084578 136.06819,50.234878 136.295563,50.2789116 C137.000901,50.4174172 137.35317,50.8105171 137.35317,51.4582111 C137.35317,51.9209641 137.157821,52.3292755 136.767123,52.6847467 C136.375624,53.0394172 135.871239,53.2715943 135.251567,53.381278 C134.832847,53.4549342 134.461364,53.4445262 134.136316,53.3500542 C133.810467,53.2563827 133.555873,53.0930581 133.370932,52.860881 C133.186792,52.6295045 133.094722,52.3596987 133.094722,52.0538655 L134.360487,51.8304951 C134.371696,52.0690771 134.460563,52.2380059 134.623087,52.3372816 C134.786412,52.437358 135.004979,52.4621769 135.278787,52.4149409 C135.534983,52.3693061 135.728731,52.2860426 135.85923,52.1643497 C135.98973,52.0426569 136.05538,51.9017494 136.05538,51.7424279" id="Fill-20"></path>
                            <path d="M140.26331,51.4039297 C140.509898,51.3606967 140.71005,51.2566173 140.863768,51.0916915 C141.017485,50.9267657 141.098347,50.7298155 141.103951,50.5008409 L142.356106,50.2806729 C142.352903,50.6241349 142.260833,50.9555877 142.079095,51.2742308 C141.897356,51.5920732 141.648366,51.857876 141.332925,52.071639 C141.016684,52.2854021 140.668419,52.4255089 140.286527,52.4927602 C139.572383,52.6192567 139.008753,52.4879566 138.595637,52.0996604 C138.182522,51.7113642 137.976765,51.1101056 137.976765,50.2966851 L137.976765,50.2078173 C137.976765,49.4256207 138.180921,48.7659175 138.590834,48.2279071 C139.000747,47.6890961 139.562775,47.3576433 140.277721,47.2311468 C140.902197,47.1206625 141.40418,47.2135334 141.781267,47.5081581 C142.158355,47.8027828 142.349701,48.2503242 142.356106,48.8499816 L141.103951,49.0701496 C141.098347,48.8067486 141.017485,48.606596 140.863768,48.4688909 C140.71005,48.3311859 140.506695,48.2847505 140.253702,48.3287841 C139.943065,48.3840262 139.708486,48.5401453 139.549165,48.7979419 C139.390644,49.0557386 139.312184,49.4440347 139.312184,49.9604286 L139.312184,50.1013361 C139.312184,50.6241349 139.389843,50.9868115 139.546763,51.1869642 C139.704483,51.3887181 139.943065,51.4607731 140.26331,51.4039297" id="Fill-22"></path>
                            <path d="M144.39302,47.1530072 C144.74689,46.6590304 145.192029,46.3652063 145.727638,46.2699336 C146.811664,46.0793883 147.361684,46.6222023 147.377696,47.8983758 L147.377696,51.1488551 L146.042278,51.3842347 L146.042278,48.1705834 C146.042278,47.8799617 145.97983,47.675806 145.857337,47.5589168 C145.734043,47.4412271 145.529086,47.4076014 145.243268,47.4588405 C144.85177,47.527693 144.568353,47.7310481 144.39302,48.0681052 L144.39302,51.6748564 L143.057601,51.9102359 L143.057601,44.7047397 L144.39302,44.4693602 L144.39302,47.1530072 Z" id="Fill-24"></path>
                            <path d="M151.349126,49.9324873 C151.020075,50.3976421 150.564527,50.6810583 149.981683,50.7835365 C149.446074,50.8788092 149.036962,50.7939444 148.755948,50.5305435 C148.473332,50.2679432 148.330023,49.8348128 148.323618,49.2327536 L148.323618,45.9070168 L149.659036,45.6716373 L149.659036,48.9541411 C149.659036,49.4833447 149.896017,49.7059145 150.369979,49.6218504 C150.823124,49.5425899 151.133761,49.3280263 151.30269,48.97896 L151.30269,45.3810156 L152.642912,45.145636 L152.642912,50.2207072 L151.386754,50.4424763 L151.349126,49.9324873 Z" id="Fill-26"></path>
                            <polygon id="Fill-28" points="155.030814 49.799586 153.690592 50.0357661 153.690592 42.8302699 155.030814 42.5940898"></polygon>
                            <path d="M158.249669,45.1554035 C157.984667,45.2026395 157.770103,45.3315378 157.605178,45.5420984 C157.440252,45.7542603 157.334571,46.0328728 157.288936,46.3803378 L159.146353,46.0528881 L159.146353,45.944005 C159.139948,45.643776 159.059887,45.4244087 158.905369,45.2867036 C158.751652,45.1489986 158.533085,45.1057656 158.249669,45.1554035 M158.401785,49.2993644 C157.669226,49.4282627 157.071971,49.3057693 156.61242,48.9294823 C156.152069,48.5539958 155.921493,47.9863629 155.921493,47.2265833 L155.921493,47.0952832 C155.921493,46.5852942 156.018367,46.1121333 156.212115,45.676601 C156.406663,45.2402682 156.681273,44.8823952 157.036744,44.6029821 C157.393016,44.3219678 157.798925,44.1418304 158.254473,44.0617693 C158.938194,43.9408771 159.476205,44.0649717 159.868504,44.4340533 C160.262404,44.8023342 160.458554,45.3883812 160.458554,46.1921943 L160.458554,46.7454163 L157.274525,47.307445 C157.318559,47.6308917 157.448258,47.8742774 157.666024,48.0360007 C157.882189,48.1977241 158.157599,48.2489632 158.490653,48.1905186 C159.003844,48.1000496 159.405751,47.8398511 159.696373,47.4099232 L160.352073,48.0408044 C160.15192,48.3634505 159.880513,48.6356581 159.538652,48.8566267 C159.197592,49.0775952 158.818103,49.2257082 158.401785,49.2993644" id="Fill-30"></path>
                            <path d="M113.7165,66.138609 C113.7165,66.6149723 113.798163,66.9648392 113.961487,67.1890102 C114.124812,67.415583 114.361792,67.4996471 114.672429,67.4452056 C115.085545,67.37235 115.376967,67.144176 115.545896,66.7598829 L115.545896,64.7543531 C115.379369,64.4293052 115.091949,64.3028087 114.682037,64.3756642 C114.038346,64.4885504 113.7165,65.0769992 113.7165,66.138609 M112.381882,66.2731116 C112.381882,65.4821082 112.556415,64.8208038 112.905482,64.2891983 C113.255349,63.759194 113.733313,63.440551 114.340176,63.3332691 C114.826947,63.2476038 115.228854,63.3612905 115.545896,63.6743293 L115.545896,61.0851543 L116.885317,60.8489742 L116.885317,68.0544704 L115.680398,68.2666322 L115.615549,67.7382291 C115.282495,68.2193962 114.854168,68.5060148 114.331369,68.598085 C113.74292,68.7021644 113.27056,68.5500484 112.915089,68.1417369 C112.559618,67.7342261 112.381882,67.111351 112.381882,66.2731116" id="Fill-32"></path>
                            <path d="M120.040444,63.4208559 C119.775442,63.468092 119.560878,63.5977909 119.395952,63.8083515 C119.231027,64.0197127 119.125346,64.2991259 119.079711,64.6457903 L120.936327,64.3183405 L120.936327,64.2094575 C120.929923,63.9100291 120.850662,63.6906617 120.696144,63.5521561 C120.542427,63.4144511 120.32386,63.3712181 120.040444,63.4208559 M120.19256,67.5648169 C119.460001,67.6937152 118.862746,67.5712217 118.402395,67.1957353 C117.942043,66.8202489 117.711468,66.2526159 117.711468,65.4928364 L117.711468,65.3615362 C117.711468,64.8515472 117.809142,64.3783863 118.00289,63.9420535 C118.196638,63.5057207 118.472048,63.1478477 118.827519,62.8684346 C119.18299,62.5882208 119.5889,62.4072828 120.044447,62.3272217 C120.728169,62.2063295 121.26698,62.3312248 121.659279,62.6995057 C122.052379,63.0685872 122.248528,63.6538336 122.248528,64.4576468 L122.248528,65.0108688 L119.0653,65.5728975 C119.108533,65.8971448 119.239033,66.1397298 119.455998,66.3014532 C119.672964,66.4631765 119.947573,66.5144156 120.280627,66.4559711 C120.794619,66.365502 121.196526,66.1061042 121.486347,65.6753756 L122.142047,66.3062569 C121.941894,66.628903 121.671288,66.9019112 121.329427,67.1228798 C120.987566,67.3438483 120.608077,67.4911607 120.19256,67.5648169" id="Fill-34"></path>
                            <path d="M125.68499,65.0994964 C125.68499,64.93377 125.603327,64.8176814 125.441604,64.7504301 C125.280681,64.6839794 125.021283,64.6447495 124.664211,64.6327403 C123.475304,64.5887067 122.881251,64.1811959 122.881251,63.4086066 C122.881251,62.9578628 123.064591,62.5487507 123.432872,62.182071 C123.800352,61.8153913 124.28232,61.5800118 124.876373,61.4759324 C125.510456,61.3638469 126.018044,61.4254939 126.399134,61.6616741 C126.778624,61.8986548 126.969169,62.2589296 126.969169,62.7440997 L125.634551,62.9794793 C125.634551,62.7849309 125.572103,62.6360173 125.448809,62.5311373 C125.326316,62.4254567 125.134169,62.3966347 124.871569,62.4430701 C124.647398,62.4814994 124.472865,62.5647629 124.350372,62.6888576 C124.226277,62.8145535 124.16543,62.9562616 124.16543,63.1155831 C124.16543,63.2660979 124.235084,63.3749809 124.37519,63.4430329 C124.515297,63.5102842 124.751477,63.5487135 125.084532,63.5567196 C125.416785,63.5655263 125.696999,63.5919464 125.925173,63.63598 C126.630511,63.7744857 126.982779,64.1675855 126.982779,64.8152796 C126.982779,65.2780325 126.78743,65.686344 126.396732,66.0418151 C126.004433,66.3964857 125.500048,66.6286628 124.881176,66.7383464 C124.462457,66.8120026 124.090173,66.8015947 123.765926,66.7071226 C123.440077,66.6134512 123.185483,66.4501266 123.000542,66.2179495 C122.816401,65.9857724 122.723531,65.7167672 122.723531,65.4109339 L123.989296,65.1875635 C124.001305,65.4261455 124.089372,65.5950744 124.252697,65.6943501 C124.416022,65.7944264 124.634588,65.8192454 124.908397,65.7712087 C125.164593,65.7263745 125.35754,65.643111 125.48884,65.5214182 C125.619339,65.3997254 125.68499,65.2588179 125.68499,65.0994964" id="Fill-36"></path>
                            <path d="M131.616074,62.4826203 L131.616074,64.3264267 L132.802579,64.1166667 C133.130028,64.0590227 133.384623,63.9349281 133.567963,63.7451833 C133.751302,63.554638 133.842572,63.3208597 133.842572,63.0422471 C133.842572,62.4169702 133.523929,62.1551705 132.886643,62.2584493 L131.616074,62.4826203 Z M131.616074,61.4882618 L132.640855,61.3065232 C133.340589,61.17122 133.690456,60.8269574 133.690456,60.2729348 C133.690456,59.9638991 133.601588,59.7565409 133.424653,59.6516609 C133.246918,59.5467809 132.967504,59.5283668 132.586414,59.5956181 L131.616074,59.7661482 L131.616074,61.4882618 Z M130.230217,65.7010752 L130.230217,58.8702649 L132.586414,58.4555485 C133.401435,58.3114386 134.021108,58.3610765 134.44303,58.6036615 C134.865752,58.8470471 135.075512,59.2745733 135.075512,59.887841 C135.075512,60.2224963 134.991448,60.531532 134.821719,60.81735 C134.65279,61.1015668 134.41661,61.3305415 134.11478,61.5018722 C134.460643,61.5290929 134.73205,61.6579913 134.930602,61.8885671 C135.129153,62.119143 135.228429,62.4273781 135.228429,62.8116713 C135.228429,63.468172 135.021872,64.0021794 134.609557,64.4128926 C134.197243,64.8236059 133.607993,65.099016 132.84421,65.2399235 L130.230217,65.7010752 Z" id="Fill-38"></path>
                            <polygon id="Fill-40" points="140.286767 61.1363133 137.625538 61.6054712 137.625538 64.3964001 136.23888 64.6413869 136.23888 57.8113772 140.619021 57.0387878 140.619021 58.1788575 137.625538 58.7064599 137.625538 60.4702053 140.286767 60.0010474"></polygon>
                            <polygon id="Fill-42" points="142.868417 63.4724953 141.48256 63.7174822 141.48256 56.8866718 142.868417 56.6424856"></polygon>
                            <polygon id="Fill-44" points="151.690746 59.9463657 152.596237 54.9265367 153.97729 54.6839516 152.484952 61.7765617 151.090288 62.0231498 149.995053 57.6470118 148.900618 62.4090442 147.504353 62.6548316 146.012815 56.0882228 147.393869 55.8440365 148.304163 60.5340139 149.413009 55.4885654 150.585903 55.2812072"></polygon>
                            <path d="M156.018287,61.1535265 L154.678865,61.3897066 L154.678865,56.3138349 L156.018287,56.0776547 L156.018287,61.1535265 Z M154.600406,55.0144437 C154.600406,54.8110886 154.667657,54.6317518 154.800558,54.477234 C154.935061,54.3227161 155.1176,54.224241 155.348176,54.1834098 C155.57635,54.1433793 155.758089,54.1770049 155.894192,54.2842868 C156.029496,54.3923692 156.097548,54.5476877 156.097548,54.7510428 C156.097548,54.9576004 156.028695,55.1377378 155.891791,55.2938569 C155.754086,55.4491753 155.573148,55.5468498 155.348176,55.5860798 C155.124005,55.6261103 154.942266,55.5924846 154.805362,55.4852028 C154.668457,55.377921 154.600406,55.2210013 154.600406,55.0144437 L154.600406,55.0144437 Z" id="Fill-46"></path>
                            <path d="M159.237943,56.509344 C158.972941,56.55658 158.757577,56.6854784 158.592651,56.8968396 C158.428526,57.1082008 158.322845,57.3876139 158.27721,57.7342784 L160.133826,57.4068286 L160.133826,57.2979455 C160.127421,56.9985171 160.048161,56.7791498 159.893643,56.6406442 C159.739926,56.5029391 159.521359,56.4597061 159.237943,56.509344 M159.390059,60.6533049 C158.6567,60.7822032 158.060245,60.6597098 157.599893,60.2842234 C157.139542,59.9079364 156.909767,59.3403034 156.909767,58.5805238 L156.909767,58.4492237 C156.909767,57.9392347 157.006641,57.4660738 157.200389,57.0305416 C157.394137,56.5942087 157.669547,56.2363358 158.025018,55.9569226 C158.38129,55.6767089 158.787199,55.4957709 159.242747,55.4157098 C159.925668,55.2948176 160.464479,55.4197129 160.856778,55.7879938 C161.249878,56.1562747 161.446027,56.7423217 161.446027,57.5461348 L161.446027,58.0993568 L158.262799,58.6613855 C158.306032,58.9848322 158.436532,59.2282179 158.653497,59.3899413 C158.870463,59.5516646 159.145873,59.6029037 159.478126,59.5444591 C159.992118,59.4539901 160.394025,59.1937916 160.683846,58.7638637 L161.339546,59.3947449 C161.139393,59.717391 160.868787,59.9895987 160.526126,60.2113678 C160.185065,60.4323364 159.806377,60.5796487 159.390059,60.6533049" id="Fill-48"></path>
                            <path d="M163.404401,54.7760219 L163.446033,55.3548634 C163.803105,54.8384695 164.28187,54.5270319 164.882328,54.4213513 C165.412333,54.3276799 165.806233,54.4165477 166.06483,54.6863535 C166.323428,54.9569599 166.456329,55.4053019 166.461933,56.0329806 L166.461933,59.312282 L165.127315,59.5476616 L165.127315,56.3011852 C165.127315,56.013766 165.065668,55.8160151 164.942374,55.7079327 C164.819881,55.5990496 164.614924,55.5710283 164.327505,55.6214667 C163.952819,55.6879174 163.670204,55.9000793 163.482861,56.2587529 L163.482861,59.8374826 L162.147442,60.0728622 L162.147442,54.9969904 L163.404401,54.7760219 Z" id="Fill-50"></path>
                        </g>
                    </g>
                </g>
            </g>
        </g>
    </g>
</svg>